<svg aria-hidden="true" class="icon-activity" style="position: absolute; width: 0; height: 0; overflow: hidden;" version="1.1" xmlns="http://www.w3.org/2000/svg" xmlns:xlink="http://www.w3.org/1999/xlink">
  <defs>
    <symbol id="icon-play" viewBox="0 0 28 32">
      <path d="M26.088 12.891c2.441 1.354 2.441 4.864 0 6.218l-21.155 11.739c-2.37 1.315-5.281-0.399-5.281-3.109v-23.477c0-2.71 2.911-4.424 5.281-3.109l21.155 11.739z"></path>
    </symbol>
    <symbol id="icon-Airbnb-Logo" viewBox="0 0 102 32">
      <path fill="#ff385c" style="fill: var(--color1, #ff385c)" d="M29.171 22.679c-0.16-0.39-0.309-0.8-0.469-1.15l-0.738-1.67-0.030-0.030c-2.195-4.8-4.539-9.68-7.023-14.48l-0.1-0.2c-0.249-0.47-0.499-0.99-0.758-1.47-0.319-0.57-0.629-1.18-1.137-1.76-0.496-0.607-1.12-1.096-1.827-1.432s-1.48-0.51-2.263-0.51c-0.783 0-1.556 0.174-2.263 0.51s-1.332 0.825-1.827 1.432c-0.469 0.58-0.818 1.19-1.137 1.76-0.249 0.52-0.499 1.030-0.758 1.5l-0.1 0.2c-2.444 4.8-4.829 9.68-7.023 14.48l-0.060 0.060c-0.219 0.52-0.479 1.060-0.728 1.64-0.16 0.35-0.319 0.73-0.479 1.15-0.431 1.1-0.569 2.293-0.399 3.463s0.64 2.274 1.365 3.206 1.68 1.658 2.77 2.107c1.090 0.449 2.279 0.606 3.448 0.455 1.121-0.148 2.2-0.522 3.172-1.1 1.297-0.73 2.544-1.79 3.941-3.32 1.397 1.53 2.674 2.59 3.941 3.33 1.218 0.717 2.598 1.113 4.011 1.15 1.635 0.007 3.218-0.58 4.456-1.651s2.047-2.556 2.278-4.179c0.267-1.166 0.177-2.386-0.259-3.5v0.010zM14.845 24.339c-1.716-2.2-2.833-4.22-3.212-5.95-0.157-0.641-0.191-1.306-0.1-1.96 0.070-0.51 0.259-0.96 0.519-1.34 0.599-0.87 1.646-1.41 2.793-1.41 0.545-0.017 1.085 0.102 1.573 0.347s0.907 0.606 1.221 1.053c0.259 0.4 0.449 0.84 0.509 1.35 0.1 0.58 0.060 1.25-0.1 1.96-0.379 1.7-1.497 3.74-3.202 5.95zM27.555 25.819c-0.113 0.824-0.44 1.604-0.948 2.262s-1.178 1.171-1.945 1.488c-0.758 0.32-1.596 0.41-2.414 0.32-0.798-0.1-1.596-0.36-2.414-0.84-1.358-0.842-2.58-1.887-3.622-3.1 2.095-2.6 3.362-4.97 3.841-7.080 0.229-1 0.259-1.9 0.16-2.73-0.125-0.787-0.417-1.537-0.858-2.2-0.503-0.719-1.175-1.303-1.956-1.7s-1.648-0.597-2.523-0.58c-1.846 0-3.492 0.86-4.489 2.27-0.449 0.661-0.739 1.418-0.848 2.21-0.13 0.84-0.1 1.77 0.16 2.73 0.479 2.11 1.776 4.51 3.841 7.1-1.024 1.236-2.248 2.291-3.621 3.12-0.828 0.48-1.616 0.73-2.414 0.83-1.241 0.159-2.495-0.179-3.489-0.941s-1.647-1.887-1.819-3.129c-0.1-0.8-0.030-1.6 0.289-2.5 0.1-0.32 0.249-0.64 0.409-1.020 0.219-0.52 0.479-1.060 0.728-1.6l0.040-0.070c2.155-4.77 4.509-9.64 6.954-14.41l0.1-0.2c0.249-0.48 0.499-0.99 0.758-1.47 0.259-0.51 0.539-1 0.898-1.4 0.311-0.372 0.699-0.671 1.138-0.876s0.917-0.312 1.401-0.312c0.484 0 0.962 0.106 1.401 0.312s0.827 0.504 1.138 0.876c0.349 0.4 0.638 0.89 0.898 1.4 0.249 0.48 0.499 1 0.758 1.47l0.1 0.2c2.434 4.77 4.789 9.64 6.984 14.41l0.030 0.030c0.259 0.52 0.479 1.1 0.728 1.6 0.16 0.39 0.319 0.7 0.419 1.030 0.19 0.9 0.289 1.7 0.19 2.5zM41.442 24.119c-0.752 0.011-1.496-0.148-2.179-0.465s-1.284-0.784-1.762-1.365c-1.073-1.24-1.643-2.839-1.596-4.48-0.016-1.677 0.572-3.303 1.656-4.58 0.502-0.589 1.126-1.061 1.829-1.383s1.468-0.484 2.241-0.477c0.727-0.020 1.448 0.146 2.093 0.482s1.196 0.831 1.598 1.438l0.1-1.57h2.913v12.080h-2.923l-0.1-1.76c-0.415 0.649-0.988 1.18-1.666 1.544s-1.437 0.548-2.205 0.536zM42.2 21.239c0.579 0 1.087-0.16 1.566-0.45 0.439-0.32 0.798-0.74 1.078-1.25 0.249-0.51 0.379-1.12 0.379-1.8 0.039-0.591-0.076-1.181-0.333-1.714s-0.648-0.99-1.134-1.326c-0.467-0.292-1.006-0.446-1.556-0.446s-1.089 0.155-1.556 0.446c-0.439 0.32-0.798 0.74-1.077 1.25-0.264 0.562-0.394 1.179-0.379 1.8-0.039 0.591 0.076 1.181 0.333 1.714s0.648 0.99 1.134 1.326c0.469 0.29 0.978 0.45 1.546 0.45zM53.324 8.459c0 0.35-0.060 0.67-0.22 0.93-0.16 0.25-0.379 0.48-0.668 0.64s-0.599 0.22-0.918 0.22-0.639-0.060-0.928-0.22c-0.274-0.153-0.504-0.373-0.668-0.64-0.154-0.285-0.23-0.606-0.22-0.93 0-0.36 0.070-0.68 0.22-0.93 0.16-0.3 0.389-0.48 0.668-0.64 0.289-0.16 0.599-0.23 0.928-0.23 0.318-0.007 0.632 0.068 0.911 0.219s0.516 0.372 0.685 0.641c0.145 0.292 0.217 0.614 0.21 0.94zM49.932 23.759v-12.060h3.172v12.080h-3.182l0.010-0.020zM61.585 14.859v0.040c-0.15-0.070-0.349-0.1-0.499-0.13-0.2-0.040-0.359-0.040-0.549-0.040-0.888 0-1.556 0.26-1.995 0.8-0.479 0.55-0.698 1.32-0.698 2.31v5.93h-3.182v-12.080h2.923l0.1 1.83c0.319-0.64 0.698-1.12 1.237-1.48 0.536-0.35 1.167-0.524 1.806-0.5 0.23 0 0.449 0.020 0.639 0.060 0.1 0.030 0.16 0.030 0.219 0.060v3.2zM62.862 23.759v-17.020h3.173v6.5c0.449-0.58 0.957-1.030 1.596-1.38 1.011-0.497 2.159-0.638 3.26-0.4s2.089 0.84 2.806 1.71c1.076 1.243 1.646 2.846 1.596 4.49 0.017 1.677-0.572 3.303-1.656 4.58-0.502 0.589-1.126 1.061-1.829 1.383s-1.469 0.484-2.241 0.477c-0.727 0.020-1.448-0.146-2.093-0.482s-1.196-0.831-1.598-1.438l-0.1 1.57-2.913 0.030v-0.020zM68.997 21.239c0.569 0 1.078-0.16 1.556-0.45 0.439-0.32 0.798-0.74 1.078-1.25 0.259-0.51 0.379-1.12 0.379-1.8 0-0.67-0.12-1.28-0.379-1.79-0.262-0.492-0.63-0.919-1.078-1.25-0.467-0.292-1.006-0.446-1.556-0.446s-1.089 0.155-1.556 0.446c-0.449 0.32-0.799 0.74-1.088 1.25-0.264 0.562-0.394 1.179-0.379 1.8-0.039 0.591 0.076 1.181 0.333 1.714s0.648 0.99 1.134 1.326c0.468 0.29 0.977 0.45 1.556 0.45zM76.49 23.769v-12.080h2.923l0.1 1.57c0.367-0.602 0.888-1.094 1.51-1.427s1.319-0.492 2.022-0.463c0.804-0.014 1.594 0.21 2.272 0.644s1.213 1.059 1.539 1.796c0.349 0.76 0.539 1.7 0.539 2.75v7.24h-3.183v-6.82c0-0.84-0.189-1.5-0.568-1.99-0.38-0.48-0.898-0.74-1.556-0.74-0.479 0-0.898 0.1-1.267 0.32-0.349 0.23-0.638 0.52-0.858 0.93-0.222 0.414-0.332 0.88-0.319 1.35v6.92h-3.153zM88.98 23.769v-17.040h3.182v6.5c0.431-0.583 0.992-1.058 1.638-1.386s1.359-0.501 2.084-0.504c0.751-0.011 1.496 0.148 2.179 0.465s1.284 0.784 1.762 1.365c1.068 1.242 1.634 2.841 1.586 4.48 0.018 1.677-0.571 3.304-1.656 4.58-0.502 0.589-1.126 1.061-1.829 1.383s-1.469 0.484-2.241 0.477c-0.727 0.020-1.448-0.146-2.093-0.482s-1.196-0.831-1.598-1.438l-0.090 1.57-2.923 0.030zM95.146 21.239c0.579 0 1.087-0.16 1.556-0.45 0.449-0.32 0.798-0.74 1.087-1.25 0.25-0.51 0.379-1.12 0.379-1.8 0.039-0.591-0.076-1.181-0.333-1.714s-0.648-0.99-1.133-1.326c-0.467-0.292-1.006-0.446-1.556-0.446s-1.089 0.155-1.556 0.446c-0.439 0.32-0.798 0.74-1.077 1.25-0.278 0.557-0.409 1.177-0.38 1.8-0.038 0.591 0.076 1.181 0.333 1.714s0.648 0.99 1.134 1.326c0.469 0.29 0.948 0.45 1.546 0.45z"></path>
    </symbol>
    <symbol id="icon-FedEx-Logo" viewBox="0 0 107 32">
      <path fill="#f60" style="fill: var(--color2, #f60)" d="M79.321 31.042l8.896-9.852-8.896-9.854h9.386l4.406 4.786 4.242-4.786h9.058l-8.853 9.813 8.975 9.893h-9.425l-4.366-4.826-4.325 4.826h-9.099z"></path>
      <path fill="#f60" style="fill: var(--color2, #f60)" d="M79.321 6.919h-10.075v4.417h10.075v6.657h-10.075v6.111h10.075v6.938h-17.48v-31.042h17.48v6.919z"></path>
      <path fill="#652c8f" style="fill: var(--color3, #652c8f)" d="M54.468 0v12.704h-0.081c-1.633-1.85-3.672-2.492-6.039-2.492-4.848 0-8.499 3.248-9.781 7.543-1.462-4.732-5.232-7.632-10.822-7.632-4.54 0-8.125 2.009-9.996 5.282v-4.068h-9.384v-4.417h10.241v-6.92h-18.605v31.043h8.365v-13.049h8.338c-0.249 0.959-0.381 1.985-0.381 3.068 0 6.475 5.018 11.019 11.423 11.019 5.386 0 8.935-2.492 10.812-7.036h-7.168c-0.97 1.365-1.705 1.77-3.644 1.77-2.248 0-4.186-1.933-4.186-4.225h14.597c0.633 5.143 4.698 9.579 10.275 9.579 2.406 0 4.609-1.167 5.956-3.136h0.081v2.010h7.374v-31.042h-7.374zM23.791 18.086c0.465-1.972 2.016-3.26 3.953-3.26 2.132 0 3.604 1.249 3.992 3.26 0.163 0-7.945 0-7.945 0zM49.993 26.316c-2.718 0-4.407-2.496-4.407-5.103 0-2.786 1.469-5.466 4.407-5.466 3.046 0 4.26 2.679 4.26 5.466-0 2.642-1.286 5.103-4.26 5.103z"></path>
    </symbol>
    <symbol id="icon-Google-Logo" viewBox="0 0 93 32">
      <path fill="#ea4335" style="fill: var(--color4, #ea4335)" d="M39.763 16.41c0 4.442-3.432 7.715-7.644 7.715s-7.644-3.273-7.644-7.715c0-4.473 3.432-7.715 7.644-7.715s7.644 3.242 7.644 7.715zM36.417 16.41c0-2.776-1.989-4.675-4.298-4.675s-4.298 1.899-4.298 4.675c0 2.748 1.989 4.675 4.298 4.675s4.298-1.93 4.298-4.675z"></path>
      <path fill="#fbbc05" style="fill: var(--color5, #fbbc05)" d="M56.253 16.41c0 4.442-3.432 7.715-7.644 7.715s-7.644-3.273-7.644-7.715c0-4.47 3.432-7.715 7.644-7.715s7.644 3.242 7.644 7.715zM52.907 16.41c0-2.776-1.989-4.675-4.298-4.675s-4.298 1.899-4.298 4.675c0 2.748 1.989 4.675 4.298 4.675s4.298-1.93 4.298-4.675z"></path>
      <path fill="#4285f4" style="fill: var(--color6, #4285f4)" d="M72.055 9.162v13.85c0 5.697-3.318 8.024-7.242 8.024-3.693 0-5.915-2.501-6.754-4.546l2.913-1.228c0.519 1.256 1.79 2.737 3.837 2.737 2.511 0 4.067-1.569 4.067-4.522v-1.11h-0.116c-0.749 0.936-2.192 1.753-4.013 1.753-3.81 0-7.3-3.36-7.3-7.683 0-4.355 3.49-7.743 7.3-7.743 1.818 0 3.26 0.817 4.013 1.725h0.116v-1.256h3.178v-0.004zM69.114 16.438c0-2.717-1.789-4.703-4.067-4.703-2.308 0-4.242 1.986-4.242 4.703 0 2.689 1.934 4.647 4.242 4.647 2.278 0 4.067-1.958 4.067-4.647z"></path>
      <path fill="#34a853" style="fill: var(--color7, #34a853)" d="M77.294 1.043v22.609h-3.263v-22.609h3.263z"></path>
      <path fill="#ea4335" style="fill: var(--color4, #ea4335)" d="M90.012 18.95l2.597 1.753c-0.838 1.256-2.858 3.419-6.348 3.419-4.329 0-7.561-3.388-7.561-7.715 0-4.588 3.26-7.715 7.187-7.715 3.954 0 5.888 3.186 6.52 4.908l0.348 0.876-10.186 4.271c0.78 1.548 1.992 2.337 3.693 2.337 1.704 0 2.886-0.849 3.751-2.136zM82.018 16.174l6.808-2.863c-0.374-0.964-1.501-1.635-2.827-1.635-1.7 0-4.068 1.52-3.981 4.497z"></path>
      <path fill="#4285f4" style="fill: var(--color6, #4285f4)" d="M12.123 14.403v-3.273h10.893c0.107 0.57 0.161 1.245 0.161 1.976 0 2.456-0.663 5.492-2.8 7.656-2.078 2.191-4.734 3.36-8.252 3.36-6.52 0-12.003-5.377-12.003-11.979s5.483-11.979 12.003-11.979c3.607 0 6.177 1.433 8.107 3.301l-2.281 2.31c-1.384-1.315-3.26-2.337-5.83-2.337-4.761 0-8.485 3.885-8.485 8.706s3.724 8.706 8.485 8.706c3.088 0 4.847-1.256 5.974-2.397 0.914-0.925 1.515-2.247 1.752-4.052l-7.726 0.003z"></path>
    </symbol>d
    <symbol id="icon-Microsoft-Logo" viewBox="0 0 155 32">
      <path fill="#737373" style="fill: var(--color8, #737373)" d="M54.68 18.431l-0.923 2.53h-0.077c-0.154-0.571-0.436-1.439-0.898-2.481l-4.95-12.031h-4.847v19.175h3.206v-11.833c0-0.744 0-1.588-0.026-2.629-0.026-0.521-0.077-0.918-0.103-1.216h0.077c0.154 0.744 0.333 1.29 0.462 1.637l5.95 13.991h2.257l5.899-14.115c0.128-0.322 0.257-0.967 0.385-1.513h0.077c-0.077 1.414-0.128 2.679-0.154 3.448v12.155h3.411v-19.15h-4.668l-5.078 12.031zM67.657 11.808h3.334v13.743h-3.334v-13.743zM69.35 6.003c-0.564 0-1.026 0.198-1.411 0.546s-0.59 0.794-0.59 1.34c0 0.521 0.205 0.967 0.59 1.315s0.846 0.521 1.411 0.521 1.052-0.198 1.411-0.521c0.385-0.347 0.59-0.794 0.59-1.315s-0.205-0.967-0.59-1.34c-0.333-0.347-0.821-0.546-1.411-0.546zM82.815 11.684c-0.615-0.124-1.257-0.198-1.872-0.198-1.513 0-2.898 0.322-4.052 0.967s-2.077 1.538-2.667 2.654c-0.616 1.141-0.924 2.456-0.924 3.969 0 1.315 0.308 2.481 0.897 3.547 0.59 1.042 1.411 1.885 2.513 2.456 1.052 0.571 2.283 0.868 3.668 0.868 1.591 0 2.95-0.322 4.027-0.918l0.025-0.025v-2.977l-0.128 0.099c-0.487 0.347-1.052 0.645-1.616 0.819-0.59 0.198-1.129 0.298-1.59 0.298-1.334 0-2.385-0.372-3.129-1.191-0.769-0.794-1.154-1.885-1.154-3.25 0-1.414 0.385-2.53 1.18-3.349s1.847-1.24 3.129-1.24c1.077 0 2.18 0.347 3.18 1.042l0.128 0.099v-3.15l-0.025-0.025c-0.436-0.174-0.924-0.372-1.591-0.496zM93.817 11.584c-0.82 0-1.59 0.248-2.257 0.769-0.564 0.447-0.949 1.091-1.283 1.86h-0.025v-2.406h-3.334v13.743h3.334v-7.020c0-1.191 0.257-2.183 0.821-2.902 0.564-0.744 1.282-1.116 2.154-1.116 0.308 0 0.615 0.074 1 0.124 0.359 0.099 0.616 0.198 0.795 0.322l0.129 0.099v-3.225l-0.077-0.025c-0.231-0.149-0.692-0.223-1.257-0.223zM102.897 11.51c-2.334 0-4.207 0.67-5.514 1.985-1.334 1.315-1.975 3.126-1.975 5.408 0 2.133 0.667 3.87 1.95 5.135 1.282 1.24 3.026 1.885 5.206 1.885 2.283 0 4.104-0.67 5.412-2.009 1.334-1.34 1.975-3.126 1.975-5.333 0-2.183-0.616-3.919-1.873-5.184-1.205-1.265-2.975-1.885-5.18-1.885zM105.564 22.077c-0.615 0.769-1.59 1.141-2.796 1.141s-2.18-0.372-2.872-1.191c-0.692-0.769-1.026-1.885-1.026-3.299 0-1.464 0.359-2.58 1.026-3.374 0.692-0.794 1.641-1.191 2.847-1.191 1.18 0 2.103 0.372 2.77 1.141s1.025 1.885 1.025 3.349c-0.051 1.488-0.333 2.654-0.975 3.423zM117.387 17.513c-1.051-0.422-1.718-0.744-2.025-1.017-0.257-0.248-0.385-0.595-0.385-1.042 0-0.372 0.153-0.744 0.538-0.992s0.821-0.372 1.462-0.372c0.564 0 1.154 0.099 1.719 0.248s1.077 0.372 1.487 0.67l0.129 0.099v-3.026l-0.077-0.025c-0.385-0.149-0.897-0.298-1.513-0.422-0.615-0.099-1.18-0.149-1.641-0.149-1.59 0-2.898 0.372-3.924 1.191-1.026 0.769-1.513 1.811-1.513 3.026 0 0.645 0.103 1.215 0.334 1.687s0.564 0.918 1.025 1.29c0.462 0.347 1.129 0.744 2.052 1.116 0.769 0.322 1.359 0.571 1.719 0.769s0.59 0.422 0.769 0.595c0.128 0.198 0.205 0.447 0.205 0.769 0 0.918-0.718 1.364-2.18 1.364-0.564 0-1.154-0.099-1.847-0.322s-1.334-0.546-1.873-0.918l-0.128-0.099v3.15l0.077 0.025c0.487 0.223 1.077 0.372 1.795 0.546 0.719 0.124 1.359 0.223 1.924 0.223 1.719 0 3.129-0.372 4.129-1.191 1.025-0.794 1.564-1.811 1.564-3.126 0-0.918-0.257-1.736-0.821-2.357-0.743-0.595-1.667-1.215-3.001-1.712zM130.006 11.51c-2.334 0-4.207 0.67-5.514 1.985s-1.975 3.126-1.975 5.408c0 2.133 0.667 3.87 1.95 5.135 1.282 1.24 3.026 1.885 5.206 1.885 2.283 0 4.104-0.67 5.412-2.009 1.334-1.34 1.975-3.126 1.975-5.333 0-2.183-0.616-3.919-1.873-5.184-1.205-1.265-2.975-1.885-5.18-1.885zM132.647 22.077c-0.615 0.769-1.59 1.141-2.796 1.141-1.231 0-2.18-0.372-2.872-1.191-0.693-0.769-1.026-1.885-1.026-3.299 0-1.464 0.359-2.58 1.026-3.374 0.692-0.794 1.641-1.191 2.847-1.191 1.154 0 2.103 0.372 2.77 1.141s1.025 1.885 1.025 3.349c0 1.488-0.333 2.654-0.975 3.423zM154.884 14.462v-2.654h-3.36v-4.068l-0.103 0.025-3.257 0.943v3.101h-5.027v-1.736c0-0.794 0.206-1.414 0.564-1.811s0.898-0.595 1.564-0.595c0.462 0 0.949 0.099 1.488 0.322l0.128 0.074v-2.803l-0.077-0.025c-0.461-0.149-1.077-0.248-1.872-0.248-1 0-1.872 0.223-2.668 0.595-0.795 0.422-1.385 0.992-1.82 1.761-0.436 0.744-0.667 1.588-0.667 2.555v1.91h-2.334v2.629h2.334v11.113h3.359v-11.088h5.027v7.070c0 2.902 1.411 4.366 4.232 4.366 0.462 0 0.949-0.074 1.411-0.149 0.487-0.099 0.846-0.223 1.052-0.322l0.025-0.025v-2.654l-0.129 0.099c-0.205 0.124-0.385 0.223-0.692 0.298-0.256 0.074-0.487 0.099-0.667 0.099-0.666 0-1.128-0.149-1.462-0.521-0.308-0.347-0.461-0.918-0.461-1.761v-6.499h3.411z"></path>
      <path fill="#f25022" style="fill: var(--color9, #f25022)" d="M0 0h15.722v15.206h-15.722v-15.206z"></path>
      <path fill="#7fba00" style="fill: var(--color10, #7fba00)" d="M17.363 0h15.722v15.206h-15.722v-15.206z"></path>
      <path fill="#00a4ef" style="fill: var(--color11, #00a4ef)" d="M0 16.794h15.722v15.206h-15.722v-15.206z"></path>
      <path fill="#ffb900" style="fill: var(--color12, #ffb900)" d="M17.363 16.794h15.722v15.206h-15.722v-15.206z"></path>
    </symbol>
    <symbol id="icon-why-product1" viewBox="0 0 21 32">
      <path d="M19.042 18.067l-17.21-17.21c-0.202-0.219-0.471-0.319-0.756-0.319-0.134 0-0.286 0.034-0.403 0.084-0.403 0.168-0.672 0.555-0.672 0.992v25.277c0 0.437 0.269 0.824 0.672 0.992 0.118 0.050 0.269 0.084 0.403 0.084 0.286 0 0.555-0.118 0.756-0.319l5.244-5.244 3.21 7.597c0.235 0.538 0.857 0.807 1.412 0.571l2.975-1.261c0.538-0.235 0.807-0.857 0.571-1.412l-3.378-8h6.42c0.437 0 0.824-0.269 0.992-0.672 0.168-0.387 0.084-0.857-0.235-1.16z"></path>
    </symbol>
    <symbol id="icon-why-product2" viewBox="0 0 41 32">
      <path d="M21.673 12.898l2.674 1.245 3.98-1.184v-2.775c0-4.714-3.98-8.49-8.735-8.49-4.735 0-8.735 3.755-8.735 8.429v12.653c0 1.163-0.939 2.082-2.082 2.082s-2.082-0.918-2.082-2.082v-5.347h-6.694c0 5.367 0 5.429 0 5.429 0 4.837 3.918 8.755 8.755 8.755 4.796 0 8.755-3.857 8.755-8.633v-12.49c0-1.143 0.939-2.082 2.082-2.082s2.082 0.939 2.082 2.082v2.408zM32.49 17.429v5.612c0 1.143-0.939 2.061-2.082 2.061s-2.082-0.918-2.082-2.061v-5.51l-3.98 1.184-2.674-1.245v5.469c0 4.796 3.939 8.674 8.755 8.674 4.837 0 8.755-3.918 8.755-8.755 0 0 0-0.061 0-5.429h-6.694z"></path>
    </symbol>
    <symbol id="icon-why-product3" viewBox="0 0 34 32">
      <path d="M17.067 30.172c0.305 0 0.61-0.114 0.838-0.343l11.867-11.428c0.171-0.171 4.362-4 4.362-8.571 0-5.581-3.41-8.914-9.105-8.914-3.333 0-6.457 2.629-7.962 4.114-1.505-1.486-4.629-4.114-7.962-4.114-5.695 0-9.105 3.333-9.105 8.914 0 4.571 4.191 8.4 4.343 8.533l11.886 11.467c0.229 0.229 0.533 0.343 0.838 0.343z"></path>
    </symbol>
    <symbol id="icon-business" viewBox="0 0 68 67">
      <path d="M37.6799 8.42617L18.1496 14.4376C11.0324 16.6282 7.9973 22.1449 9.75752 29.6911L14.5832 50.379C16.3434 57.9252 21.3731 60.9595 28.4903 58.7689L48.0206 52.7575C55.1378 50.5668 58.1543 45.0558 56.3941 37.5097L51.5684 16.8218C49.8082 9.27558 44.7971 6.23553 37.6799 8.42617Z" fill="url(#paint0_linear_42_45)" />
      <g opacity="0.5" filter="url(#filter0_f_42_45)">
        <path d="M36.2819 17.6791L23.3812 21.6497C18.68 23.0967 16.6433 26.6043 17.7499 31.3481L20.7837 44.3534C21.8903 49.0973 25.1809 50.9652 29.8821 49.5183L42.7828 45.5476C47.484 44.1007 49.5084 40.5969 48.4018 35.853L45.368 22.8477C44.2614 18.1039 40.9831 16.2322 36.2819 17.6791Z" fill="#E31313" />
      </g>
      <g filter="url(#filter1_b_42_45)">
        <path d="M50.5634 19.2969H32.1057C24.8886 19.2969 20.0347 24.8546 20.0347 33.121V52.1992C20.0347 60.4424 24.8886 66 32.1057 66H50.5634C57.7805 66 62.6131 60.4424 62.6131 52.1992V33.121C62.6131 24.8546 57.7805 19.2969 50.5634 19.2969Z" fill="#F03E3D" />
      </g>
      <g filter="url(#filter2_b_42_45)">
        <path fill-rule="evenodd" clip-rule="evenodd" d="M32.1057 18.2969H50.5634C54.4461 18.2969 57.7388 19.8004 60.0487 22.4522C62.348 25.0919 63.6131 28.797 63.6131 33.121V52.1992C63.6131 56.5122 62.3476 60.2115 60.0483 62.8481C57.7385 65.4966 54.446 67 50.5634 67H32.1057C28.2233 67 24.9259 65.4968 22.6109 62.849C20.3061 60.2128 19.0347 56.5133 19.0347 52.1992V33.121C19.0347 28.7959 20.3058 25.0906 22.6105 22.4513C24.9256 19.8001 28.2233 18.2969 32.1057 18.2969ZM32.1057 19.2969H50.5634C57.7805 19.2969 62.6131 24.8546 62.6131 33.121V52.1992C62.6131 60.4424 57.7805 66 50.5634 66H32.1057C24.8886 66 20.0347 60.4424 20.0347 52.1992V33.121C20.0347 24.8546 24.8886 19.2969 32.1057 19.2969Z" fill="url(#paint1_linear_42_45)" />
      </g>
      <g filter="url(#filter3_b_42_45)">
        <path d="M64.8719 15.8657C63.1442 15.8657 61.7437 17.4019 61.7437 19.297C61.7437 21.192 63.1442 22.7282 64.8719 22.7282C66.5995 22.7282 68.0001 21.192 68.0001 19.297C68.0001 18.3869 67.6705 17.5142 67.0838 16.8707C66.4972 16.2272 65.7015 15.8657 64.8719 15.8657Z" fill="url(#paint2_linear_42_45)" />
      </g>
      <g filter="url(#filter4_bd_42_45)">
        <path d="M52.4622 38.5129L46.3781 47.1245C46.1221 47.4988 45.7382 47.743 45.3145 47.801C44.8908 47.859 44.4638 47.7258 44.1316 47.4321L38.2909 42.4086L33.0304 49.872C32.6495 50.5355 31.9076 50.8337 31.2252 50.5974C30.5429 50.3611 30.0923 49.6501 30.1288 48.8673C30.1256 48.48 30.2446 48.1034 30.4657 47.8011L36.7558 38.9025C37.0087 38.5312 37.3875 38.2871 37.8067 38.2254C38.2258 38.1636 38.6501 38.2895 38.9835 38.5744L44.8243 43.6184L49.9537 36.3805C50.2003 36.0073 50.5745 35.7596 50.9908 35.6939C51.4071 35.6282 51.8299 35.7502 52.1627 36.0319C52.8502 36.6217 52.983 37.7042 52.4622 38.4719V38.5129Z" fill="url(#paint3_linear_42_45)" />
      </g>
      <g filter="url(#filter5_bd_42_45)">
        <path fill-rule="evenodd" clip-rule="evenodd" d="M44.1316 47.4321C44.4638 47.7258 44.8908 47.859 45.3145 47.801C45.7382 47.743 46.1221 47.4988 46.3781 47.1245L52.4622 38.5129V38.4719C52.983 37.7042 52.8502 36.6217 52.1627 36.0319C51.8299 35.7502 51.4071 35.6282 50.9908 35.6939C50.5745 35.7596 50.2003 36.0073 49.9537 36.3805L44.8243 43.6184L38.9835 38.5744C38.6501 38.2895 38.2258 38.1636 37.8067 38.2254C37.3875 38.2871 37.0087 38.5312 36.7558 38.9025L30.4657 47.8011C30.2446 48.1034 30.1256 48.48 30.1288 48.8673C30.0923 49.6501 30.5429 50.3611 31.2252 50.5974C31.9076 50.8337 32.6495 50.5355 33.0304 49.872L38.2909 42.4086L44.1316 47.4321ZM30.1288 48.8673L30.5283 48.886C30.4991 49.5123 30.8602 50.0477 31.3561 50.2194C31.8415 50.3875 32.3899 50.1843 32.6835 49.6729L32.6928 49.6568L38.2177 41.8181L44.3966 47.1324C44.6453 47.3523 44.9568 47.4463 45.2602 47.4047C45.5646 47.363 45.8513 47.1861 46.0479 46.8987L46.0513 46.8937L52.0622 38.3859V38.349L52.1312 38.2473C52.5419 37.642 52.4296 36.7889 51.9031 36.3363C51.6558 36.1274 51.3496 36.0422 51.0531 36.089C50.7552 36.136 50.4763 36.3151 50.2874 36.601L50.2802 36.6119L44.8961 44.2089L38.7237 38.8785C38.7234 38.8783 38.7231 38.8781 38.7229 38.8779C38.4739 38.6654 38.165 38.5769 37.8649 38.6211C37.5637 38.6655 37.2806 38.8425 37.0864 39.1277L37.0825 39.1334L30.7886 48.0373C30.6202 48.2677 30.5263 48.5596 30.5288 48.8641L30.1288 48.8673Z" fill="url(#paint4_linear_42_45)" />
      </g>
      <defs>
        <filter id="filter0_f_42_45" x="0.455078" y="0.201172" width="65.2427" height="66.7954" filterUnits="userSpaceOnUse" color-interpolation-filters="sRGB">
          <feFlood flood-opacity="0" result="BackgroundImageFix" />
          <feBlend mode="normal" in="SourceGraphic" in2="BackgroundImageFix" result="shape" />
          <feGaussianBlur stdDeviation="8.5" result="effect1_foregroundBlur_42_45" />
        </filter>
        <filter id="filter1_b_42_45" x="-3.96533" y="-4.70312" width="90.5784" height="94.7031" filterUnits="userSpaceOnUse" color-interpolation-filters="sRGB">
          <feFlood flood-opacity="0" result="BackgroundImageFix" />
          <feGaussianBlur in="BackgroundImageFix" stdDeviation="12" />
          <feComposite in2="SourceAlpha" operator="in" result="effect1_backgroundBlur_42_45" />
          <feBlend mode="normal" in="SourceGraphic" in2="effect1_backgroundBlur_42_45" result="shape" />
        </filter>
        <filter id="filter2_b_42_45" x="-4.96533" y="-5.70312" width="92.5784" height="96.7031" filterUnits="userSpaceOnUse" color-interpolation-filters="sRGB">
          <feFlood flood-opacity="0" result="BackgroundImageFix" />
          <feGaussianBlur in="BackgroundImageFix" stdDeviation="12" />
          <feComposite in2="SourceAlpha" operator="in" result="effect1_backgroundBlur_42_45" />
          <feBlend mode="normal" in="SourceGraphic" in2="effect1_backgroundBlur_42_45" result="shape" />
        </filter>
        <filter id="filter3_b_42_45" x="46.7437" y="0.865723" width="36.2563" height="36.8625" filterUnits="userSpaceOnUse" color-interpolation-filters="sRGB">
          <feFlood flood-opacity="0" result="BackgroundImageFix" />
          <feGaussianBlur in="BackgroundImageFix" stdDeviation="7.5" />
          <feComposite in2="SourceAlpha" operator="in" result="effect1_backgroundBlur_42_45" />
          <feBlend mode="normal" in="SourceGraphic" in2="effect1_backgroundBlur_42_45" result="shape" />
        </filter>
        <filter id="filter4_bd_42_45" x="15.1267" y="20.6765" width="52.6533" height="45.0012" filterUnits="userSpaceOnUse" color-interpolation-filters="sRGB">
          <feFlood flood-opacity="0" result="BackgroundImageFix" />
          <feGaussianBlur in="BackgroundImageFix" stdDeviation="7.5" />
          <feComposite in2="SourceAlpha" operator="in" result="effect1_backgroundBlur_42_45" />
          <feColorMatrix in="SourceAlpha" type="matrix" values="0 0 0 0 0 0 0 0 0 0 0 0 0 0 0 0 0 0 127 0" result="hardAlpha" />
          <feOffset dx="5" dy="5" />
          <feGaussianBlur stdDeviation="5" />
          <feColorMatrix type="matrix" values="0 0 0 0 1 0 0 0 0 0.321569 0 0 0 0 0.54902 0 0 0 0.5 0" />
          <feBlend mode="normal" in2="effect1_backgroundBlur_42_45" result="effect2_dropShadow_42_45" />
          <feBlend mode="normal" in="SourceGraphic" in2="effect2_dropShadow_42_45" result="shape" />
        </filter>
        <filter id="filter5_bd_42_45" x="15.1267" y="20.6765" width="52.6533" height="45.0012" filterUnits="userSpaceOnUse" color-interpolation-filters="sRGB">
          <feFlood flood-opacity="0" result="BackgroundImageFix" />
          <feGaussianBlur in="BackgroundImageFix" stdDeviation="7.5" />
          <feComposite in2="SourceAlpha" operator="in" result="effect1_backgroundBlur_42_45" />
          <feColorMatrix in="SourceAlpha" type="matrix" values="0 0 0 0 0 0 0 0 0 0 0 0 0 0 0 0 0 0 127 0" result="hardAlpha" />
          <feOffset dx="5" dy="5" />
          <feGaussianBlur stdDeviation="5" />
          <feColorMatrix type="matrix" values="0 0 0 0 1 0 0 0 0 0.321569 0 0 0 0 0.54902 0 0 0 0.5 0" />
          <feBlend mode="normal" in2="effect1_backgroundBlur_42_45" result="effect2_dropShadow_42_45" />
          <feBlend mode="normal" in="SourceGraphic" in2="effect2_dropShadow_42_45" result="shape" />
        </filter>
        <linearGradient id="paint0_linear_42_45" x1="36.8464" y1="35.6215" x2="2.4676" y2="63.315" gradientUnits="userSpaceOnUse">
          <stop stop-color="#F03E3D" />
          <stop offset="1" stop-color="#870404" />
        </linearGradient>
        <linearGradient id="paint1_linear_42_45" x1="26.1308" y1="23.9709" x2="57.6635" y2="59.7173" gradientUnits="userSpaceOnUse">
          <stop stop-color="white" stop-opacity="0.25" />
          <stop offset="1" stop-color="white" stop-opacity="0" />
        </linearGradient>
        <linearGradient id="paint2_linear_42_45" x1="65.3325" y1="19.7565" x2="59.6516" y2="22.2747" gradientUnits="userSpaceOnUse">
          <stop stop-color="#FF759F" stop-opacity="0" />
          <stop offset="1" stop-color="#FF196E" />
        </linearGradient>
        <linearGradient id="paint3_linear_42_45" x1="51.1739" y1="38.3854" x2="25.9745" y2="39.6261" gradientUnits="userSpaceOnUse">
          <stop stop-color="white" />
          <stop offset="1" stop-color="white" stop-opacity="0.2" />
        </linearGradient>
        <linearGradient id="paint4_linear_42_45" x1="33.7327" y1="37.4242" x2="41.8733" y2="52.6495" gradientUnits="userSpaceOnUse">
          <stop stop-color="white" stop-opacity="0.25" />
          <stop offset="1" stop-color="white" stop-opacity="0" />
        </linearGradient>
      </defs>
    </symbol>
    <symbol id="icon-enterprise" viewBox="0 0 72 72">
      <g filter="url(#filter0_b_42_33)">
        <path d="M37.1408 7.34107L16.6858 13.1889C9.23166 15.3199 6.13984 21.033 8.13698 28.9854L13.6122 50.787C15.6093 58.7394 20.9642 62.0376 28.4183 59.9066L48.8734 54.0588C56.3275 51.9277 59.3999 46.2202 57.4027 38.2678L51.9275 16.4662C49.9304 8.51386 44.595 5.21004 37.1408 7.34107Z" fill="url(#paint0_linear_42_33)"/>
      </g>
      <g opacity="0.5" filter="url(#filter1_f_42_33)">
        <path d="M47.2199 35.9124L43.5054 20.8997C42.158 15.4542 38.7858 13.0126 34.3519 14.2615L19.3345 18.4913C14.8278 19.7607 13.0827 23.6437 14.4301 29.0892L18.1447 44.1019C19.5137 49.6351 22.8056 52.0036 27.3123 50.7343L42.3297 46.5044C46.7637 45.2555 48.589 41.4456 47.2199 35.9124Z" fill="#11B5E4"/>
      </g>
      <g filter="url(#filter2_b_42_33)">
        <mask id="path-3-outside-1_42_33" maskUnits="userSpaceOnUse" x="20.6611" y="16.626" width="48" height="51" fill="black">
          <rect fill="white" x="20.6611" y="16.626" width="48" height="51"/>
          <path d="M54.9241 17.626H33.7494C26.0331 17.626 21.6611 22.2906 21.6611 30.5235V53.0942C21.6611 61.3271 26.0331 65.9917 33.7494 65.9917H54.9241C62.6404 65.9917 66.9922 61.3271 66.9922 53.0942V30.5235C66.9922 22.2906 62.6404 17.626 54.9241 17.626Z"/>
        </mask>
        <path d="M54.9241 17.626H33.7494C26.0331 17.626 21.6611 22.2906 21.6611 30.5235V53.0942C21.6611 61.3271 26.0331 65.9917 33.7494 65.9917H54.9241C62.6404 65.9917 66.9922 61.3271 66.9922 53.0942V30.5235C66.9922 22.2906 62.6404 17.626 54.9241 17.626Z" fill="#00ACDD"/>
        <path d="M54.9241 18.626C55.4763 18.626 55.9241 18.1783 55.9241 17.626C55.9241 17.0737 55.4763 16.626 54.9241 16.626V18.626ZM54.9241 16.626C54.3718 16.626 53.9241 17.0737 53.9241 17.626C53.9241 18.1783 54.3718 18.626 54.9241 18.626V16.626ZM54.9241 16.626H33.7494V18.626H54.9241V16.626ZM33.7494 16.626C29.6868 16.626 26.3727 17.8595 24.082 20.3035C21.8002 22.7381 20.6611 26.2381 20.6611 30.5235H22.6611C22.6611 26.576 23.708 23.6272 25.5413 21.6712C27.3656 19.7248 30.0957 18.626 33.7494 18.626V16.626ZM20.6611 30.5235V53.0942H22.6611V30.5235H20.6611ZM20.6611 53.0942C20.6611 57.3796 21.8002 60.8796 24.082 63.3141C26.3727 65.7582 29.6868 66.9917 33.7494 66.9917V64.9917C30.0957 64.9917 27.3656 63.8929 25.5413 61.9464C23.708 59.9904 22.6611 57.0417 22.6611 53.0942H20.6611ZM33.7494 66.9917H54.9241V64.9917H33.7494V66.9917ZM54.9241 66.9917C58.9868 66.9917 62.2964 65.7581 64.5822 63.3132C66.8587 60.8783 67.9922 57.3784 67.9922 53.0942H65.9922C65.9922 57.0428 64.9498 59.9917 63.1213 61.9473C61.3022 63.893 58.5776 64.9917 54.9241 64.9917V66.9917ZM67.9922 53.0942V30.5235H65.9922V53.0942H67.9922ZM67.9922 30.5235C67.9922 26.2392 66.8587 22.7393 64.5822 20.3044C62.2964 17.8596 58.9868 16.626 54.9241 16.626V18.626C58.5776 18.626 61.3022 19.7247 63.1213 21.6703C64.9498 23.626 65.9922 26.5748 65.9922 30.5235H67.9922Z" fill="url(#paint1_linear_42_33)" mask="url(#path-3-outside-1_42_33)"/>
      </g>
      <g filter="url(#filter3_bd_42_33)">
        <mask id="path-5-inside-2_42_33" fill="white">
          <path fill-rule="evenodd" clip-rule="evenodd" d="M44.4062 27.5144C43.3787 27.5144 42.5325 28.4172 42.5325 29.535V54.0833C42.5325 55.1796 43.3787 56.0824 44.4062 56.0824C45.4538 56.0824 46.3 55.1796 46.3 54.0833V29.535C46.3 28.4172 45.4538 27.5144 44.4062 27.5144ZM33.8293 35.4471C32.8017 35.4471 31.9556 36.3499 31.9556 37.4677V54.084C31.9556 55.1803 32.8017 56.0831 33.8293 56.0831C34.8769 56.0831 35.7231 55.1803 35.7231 54.084V37.4677C35.7231 36.3499 34.8769 35.4471 33.8293 35.4471ZM52.9492 46.2378C52.9492 45.1201 53.7954 44.2172 54.8431 44.2172C55.8706 44.2172 56.7168 45.1201 56.7168 46.2378V54.0838C56.7168 55.1801 55.8706 56.083 54.8229 56.083C53.7954 56.083 52.9492 55.1801 52.9492 54.0838V46.2378Z"/>
        </mask>
        <path fill-rule="evenodd" clip-rule="evenodd" d="M44.4062 27.5144C43.3787 27.5144 42.5325 28.4172 42.5325 29.535V54.0833C42.5325 55.1796 43.3787 56.0824 44.4062 56.0824C45.4538 56.0824 46.3 55.1796 46.3 54.0833V29.535C46.3 28.4172 45.4538 27.5144 44.4062 27.5144ZM33.8293 35.4471C32.8017 35.4471 31.9556 36.3499 31.9556 37.4677V54.084C31.9556 55.1803 32.8017 56.0831 33.8293 56.0831C34.8769 56.0831 35.7231 55.1803 35.7231 54.084V37.4677C35.7231 36.3499 34.8769 35.4471 33.8293 35.4471ZM52.9492 46.2378C52.9492 45.1201 53.7954 44.2172 54.8431 44.2172C55.8706 44.2172 56.7168 45.1201 56.7168 46.2378V54.0838C56.7168 55.1801 55.8706 56.083 54.8229 56.083C53.7954 56.083 52.9492 55.1801 52.9492 54.0838V46.2378Z" fill="url(#paint2_linear_42_33)"/>
        <path d="M42.9325 29.535C42.9325 28.6105 43.6263 27.9144 44.4062 27.9144V27.1144C43.1311 27.1144 42.1325 28.224 42.1325 29.535H42.9325ZM42.9325 54.0833V29.535H42.1325V54.0833H42.9325ZM44.4062 55.6824C43.6236 55.6824 42.9325 54.9835 42.9325 54.0833H42.1325C42.1325 55.3757 43.1337 56.4824 44.4062 56.4824V55.6824ZM45.9 54.0833C45.9 54.9806 45.2116 55.6824 44.4062 55.6824V56.4824C45.6961 56.4824 46.7 55.3786 46.7 54.0833H45.9ZM45.9 29.535V54.0833H46.7V29.535H45.9ZM44.4062 27.9144C45.2089 27.9144 45.9 28.6133 45.9 29.535H46.7C46.7 28.2211 45.6988 27.1144 44.4062 27.1144V27.9144ZM32.3556 37.4677C32.3556 36.5432 33.0494 35.8471 33.8293 35.8471V35.0471C32.5541 35.0471 31.5556 36.1567 31.5556 37.4677H32.3556ZM32.3556 54.084V37.4677H31.5556V54.084H32.3556ZM33.8293 55.6831C33.0467 55.6831 32.3556 54.9842 32.3556 54.084H31.5556C31.5556 55.3764 32.5568 56.4831 33.8293 56.4831V55.6831ZM35.3231 54.084C35.3231 54.9813 34.6347 55.6831 33.8293 55.6831V56.4831C35.1191 56.4831 36.1231 55.3793 36.1231 54.084H35.3231ZM35.3231 37.4677V54.084H36.1231V37.4677H35.3231ZM33.8293 35.8471C34.632 35.8471 35.3231 36.546 35.3231 37.4677H36.1231C36.1231 36.1538 35.1218 35.0471 33.8293 35.0471V35.8471ZM54.8431 43.8172C53.5505 43.8172 52.5492 44.924 52.5492 46.2378H53.3492C53.3492 45.3162 54.0403 44.6172 54.8431 44.6172V43.8172ZM57.1168 46.2378C57.1168 44.9268 56.1182 43.8172 54.8431 43.8172V44.6172C55.623 44.6172 56.3168 45.3133 56.3168 46.2378H57.1168ZM57.1168 54.0838V46.2378H56.3168V54.0838H57.1168ZM54.8229 56.483C56.1128 56.483 57.1168 55.3791 57.1168 54.0838H56.3168C56.3168 54.9812 55.6283 55.683 54.8229 55.683V56.483ZM52.5492 54.0838C52.5492 55.3762 53.5505 56.483 54.8229 56.483V55.683C54.0403 55.683 53.3492 54.984 53.3492 54.0838H52.5492ZM52.5492 46.2378V54.0838H53.3492V46.2378H52.5492Z" fill="url(#paint3_linear_42_33)" mask="url(#path-5-inside-2_42_33)"/>
      </g>
      <defs>
        <filter id="filter0_b_42_33" x="-5.45654" y="-6.29175" width="76.4546" height="79.8315" filterUnits="userSpaceOnUse" color-interpolation-filters="sRGB">
          <feFlood flood-opacity="0" result="BackgroundImageFix"/>
          <feGaussianBlur in="BackgroundImageFix" stdDeviation="6.5"/>
          <feComposite in2="SourceAlpha" operator="in" result="effect1_backgroundBlur_42_33"/>
          <feBlend mode="normal" in="SourceGraphic" in2="effect1_backgroundBlur_42_33" result="shape"/>
        </filter>
        <filter id="filter1_f_42_33" x="0.986328" y="0.941162" width="59.6797" height="63.1279" filterUnits="userSpaceOnUse" color-interpolation-filters="sRGB">
          <feFlood flood-opacity="0" result="BackgroundImageFix"/>
          <feBlend mode="normal" in="SourceGraphic" in2="BackgroundImageFix" result="shape"/>
          <feGaussianBlur stdDeviation="6.5" result="effect1_foregroundBlur_42_33"/>
        </filter>
        <filter id="filter2_b_42_33" x="5.66113" y="1.62598" width="77.3311" height="80.3657" filterUnits="userSpaceOnUse" color-interpolation-filters="sRGB">
          <feFlood flood-opacity="0" result="BackgroundImageFix"/>
          <feGaussianBlur in="BackgroundImageFix" stdDeviation="7.5"/>
          <feComposite in2="SourceAlpha" operator="in" result="effect1_backgroundBlur_42_33"/>
          <feBlend mode="normal" in="SourceGraphic" in2="effect1_backgroundBlur_42_33" result="shape"/>
        </filter>
        <filter id="filter3_bd_42_33" x="16.9556" y="12.5144" width="54.7612" height="58.5688" filterUnits="userSpaceOnUse" color-interpolation-filters="sRGB">
          <feFlood flood-opacity="0" result="BackgroundImageFix"/>
          <feGaussianBlur in="BackgroundImageFix" stdDeviation="7.5"/>
          <feComposite in2="SourceAlpha" operator="in" result="effect1_backgroundBlur_42_33"/>
          <feColorMatrix in="SourceAlpha" type="matrix" values="0 0 0 0 0 0 0 0 0 0 0 0 0 0 0 0 0 0 127 0" result="hardAlpha"/>
          <feOffset dx="5" dy="5"/>
          <feGaussianBlur stdDeviation="5"/>
          <feColorMatrix type="matrix" values="0 0 0 0 1 0 0 0 0 0.447059 0 0 0 0 0.368627 0 0 0 0.5 0"/>
          <feBlend mode="normal" in2="effect1_backgroundBlur_42_33" result="effect2_dropShadow_42_33"/>
          <feBlend mode="normal" in="SourceGraphic" in2="effect2_dropShadow_42_33" result="shape"/>
        </filter>
        <linearGradient id="paint0_linear_42_33" x1="36.7793" y1="35.8334" x2="1.47372" y2="64.5297" gradientUnits="userSpaceOnUse">
          <stop stop-color="#11B5E4"/>
          <stop offset="1" stop-color="#035B81"/>
        </linearGradient>
        <linearGradient id="paint1_linear_42_33" x1="28.8771" y1="23.2606" x2="60.0902" y2="59.4933" gradientUnits="userSpaceOnUse">
          <stop stop-color="white" stop-opacity="0.25"/>
          <stop offset="1" stop-color="white" stop-opacity="0"/>
        </linearGradient>
        <linearGradient id="paint2_linear_42_33" x1="25.5462" y1="48.7187" x2="38.4094" y2="73.4862" gradientUnits="userSpaceOnUse">
          <stop stop-color="white"/>
          <stop offset="1" stop-color="white" stop-opacity="0.2"/>
        </linearGradient>
        <linearGradient id="paint3_linear_42_33" x1="35.8971" y1="30.8427" x2="54.4928" y2="50.8043" gradientUnits="userSpaceOnUse">
          <stop stop-color="white" stop-opacity="0.25"/>
          <stop offset="1" stop-color="white" stop-opacity="0"/>
        </linearGradient>
      </defs>
    </symbol>
    <symbol id="icon-time" viewBox="0 0 26 32">
      <path d="M23.664 2.689h1.614c0.302 0 0.538-0.235 0.538-0.538v-1.076c0-0.303-0.235-0.538-0.538-0.538h-24.74c-0.303 0-0.538 0.235-0.538 0.538v1.076c0 0.303 0.235 0.538 0.538 0.538h1.613c0 6.218 2.975 10.723 6.269 12.908-3.294 2.185-6.269 6.689-6.269 12.908h-1.613c-0.303 0-0.538 0.235-0.538 0.538v1.076c0 0.302 0.235 0.538 0.538 0.538h24.74c0.302 0 0.538-0.235 0.538-0.538v-1.076c0-0.302-0.235-0.538-0.538-0.538h-1.614c0-6.218-2.975-10.723-6.269-12.908 3.294-2.185 6.269-6.689 6.269-12.908zM21.513 2.689c0 2.454-0.555 4.622-1.429 6.454h-14.353c-0.874-1.832-1.429-4-1.429-6.454h17.21zM20.555 23.126h-15.294c1.244-3.244 3.479-5.546 5.714-6.454h3.866c2.235 0.908 4.471 3.21 5.714 6.454z"></path>
    </symbol>
    <symbol id="icon-tick" viewBox="0 0 45 32">
      <path d="M42.17 0.638c-0.834-0.851-2.188-0.851-3.022 0l-25.606 26.102-9.843-10.033c-0.835-0.851-2.188-0.851-3.023 0s-0.835 2.23 0 3.081l11.354 11.574c0.834 0.851 2.189 0.85 3.023 0l27.117-27.643c0.835-0.851 0.835-2.23 0-3.081z"></path>
    </symbol>
    <symbol id="icon-star-full" viewBox="0 0 36 32">
      <path d="M33.813 11.487c-0.102-0.296-0.29-0.556-0.541-0.749s-0.553-0.308-0.869-0.333l-9.261-0.725-4.008-8.736c-0.128-0.281-0.335-0.52-0.598-0.688s-0.569-0.257-0.882-0.257c-0.313-0-0.619 0.089-0.882 0.256s-0.471 0.406-0.599 0.687l-4.008 8.737-9.261 0.725c-0.311 0.024-0.609 0.136-0.857 0.323s-0.437 0.439-0.543 0.728c-0.106 0.289-0.125 0.602-0.055 0.902s0.226 0.573 0.449 0.787l6.844 6.57-2.421 10.321c-0.074 0.312-0.050 0.639 0.068 0.938s0.324 0.556 0.592 0.739c0.268 0.182 0.585 0.281 0.911 0.283s0.645-0.092 0.915-0.27l8.845-5.807 8.846 5.807c0.277 0.181 0.603 0.274 0.935 0.267s0.654-0.114 0.922-0.307 0.47-0.462 0.579-0.771c0.109-0.309 0.118-0.644 0.028-0.958l-2.971-10.238 7.369-6.53c0.483-0.429 0.66-1.097 0.452-1.704z"></path>
    </symbol>
    <symbol id="icon-star-none" viewBox="0 0 34 32">
      <path d="M8.624 19.716l-2.421 10.321c-0.075 0.313-0.052 0.64 0.065 0.94s0.323 0.558 0.591 0.74c0.268 0.183 0.586 0.281 0.912 0.283s0.645-0.093 0.916-0.273l8.845-5.807 8.845 5.807c0.277 0.181 0.603 0.274 0.935 0.267s0.654-0.114 0.922-0.307c0.268-0.193 0.47-0.462 0.579-0.771s0.118-0.644 0.028-0.958l-2.971-10.238 7.369-6.53c0.236-0.209 0.405-0.482 0.485-0.785s0.069-0.622-0.033-0.918c-0.102-0.296-0.29-0.556-0.54-0.748s-0.553-0.308-0.87-0.332l-9.261-0.726-4.008-8.736c-0.128-0.281-0.335-0.52-0.598-0.688s-0.569-0.257-0.882-0.257c-0.313 0-0.619 0.089-0.882 0.257s-0.47 0.406-0.598 0.688l-4.008 8.736-9.261 0.725c-0.311 0.024-0.609 0.136-0.857 0.323s-0.437 0.439-0.543 0.728c-0.106 0.289-0.125 0.602-0.055 0.902s0.226 0.573 0.449 0.787l6.846 6.57zM13.259 12.796c0.29-0.023 0.568-0.121 0.806-0.286s0.426-0.39 0.545-0.651l2.922-6.368 2.922 6.368c0.119 0.261 0.308 0.486 0.545 0.651s0.516 0.264 0.806 0.286l6.453 0.504-5.314 4.709c-0.461 0.409-0.645 1.040-0.476 1.628l2.036 7.014-6.069-3.985c-0.266-0.176-0.58-0.27-0.901-0.27s-0.634 0.094-0.901 0.27l-6.342 4.164 1.706-7.272c0.063-0.267 0.054-0.546-0.024-0.81s-0.225-0.502-0.424-0.694l-4.935-4.738 6.644-0.521z"></path>
    </symbol>
    <symbol id="icon-twitter" viewBox="0 0 32 32">
      <path d="M10.33 29.136c-3.556 0-7.015-1.013-10.002-2.931-0.279-0.179-0.397-0.526-0.286-0.839s0.428-0.512 0.754-0.465c2.505 0.292 5.12-0.218 7.314-1.472-2.169-0.652-3.933-2.332-4.646-4.559-0.077-0.24-0.021-0.502 0.147-0.69 0.102-0.114 0.238-0.191 0.384-0.222-1.694-1.29-2.764-3.328-2.764-5.565 0-0.252 0.134-0.524 0.351-0.652s0.487-0.168 0.706-0.048c0.063 0.036 0.127 0.070 0.191 0.101-0.77-1.137-1.196-2.497-1.196-3.916 0-1.232 0.326-2.447 0.946-3.511 0.117-0.202 0.326-0.333 0.559-0.351 0.232-0.017 0.458 0.080 0.606 0.259 2.878 3.529 7.043 5.767 11.536 6.227-0.020-0.215-0.030-0.434-0.030-0.65 0-3.851 3.134-6.985 6.985-6.985 1.788 0 3.52 0.693 4.811 1.916 1.188-0.272 2.326-0.728 3.389-1.359 0.255-0.148 0.573-0.127 0.805 0.055 0.23 0.185 0.324 0.492 0.235 0.774-0.226 0.707-0.562 1.369-0.993 1.962 0.296-0.102 0.586-0.218 0.872-0.344 0.286-0.131 0.629-0.051 0.832 0.193 0.203 0.242 0.222 0.59 0.047 0.854-0.827 1.232-1.834 2.306-2.996 3.198 0.004 0.154 0.006 0.309 0.006 0.462 0 9.122-6.944 18.559-18.561 18.559zM3.601 26.336c2.115 0.906 4.399 1.377 6.729 1.377 10.728 0 17.138-8.713 17.138-17.138 0-0.26-0.007-0.522-0.017-0.782-0.010-0.239 0.101-0.467 0.294-0.606 0.512-0.37 0.993-0.778 1.438-1.222-0.464 0.107-0.935 0.189-1.411 0.246-0.33 0.047-0.649-0.156-0.758-0.475-0.108-0.317 0.020-0.667 0.307-0.841 0.565-0.339 1.060-0.771 1.467-1.27-0.71 0.272-1.441 0.484-2.188 0.629-0.239 0.050-0.488-0.030-0.656-0.21-1.047-1.115-2.528-1.755-4.062-1.755-3.067 0-5.562 2.495-5.562 5.562 0 0.425 0.048 0.854 0.145 1.269 0.050 0.216-0.004 0.445-0.148 0.617-0.142 0.171-0.357 0.289-0.58 0.253-4.855-0.245-9.429-2.403-12.715-5.971-0.211 0.595-0.319 1.223-0.319 1.858 0 1.866 0.925 3.595 2.472 4.629 0.265 0.176 0.38 0.505 0.283 0.808-0.097 0.302-0.397 0.484-0.698 0.495-0.679-0.021-1.353-0.142-1.996-0.358 0.44 2.204 2.134 3.951 4.348 4.396 0.324 0.065 0.56 0.343 0.57 0.673 0.011 0.329-0.205 0.623-0.522 0.711-0.613 0.166-1.258 0.26-1.888 0.248 0.953 1.686 2.743 2.783 4.74 2.822 0.3 0.006 0.565 0.202 0.66 0.487s0 0.6-0.236 0.785c-1.999 1.566-4.34 2.508-6.836 2.764z"></path>
    </symbol>
    <symbol id="icon-facebook" viewBox="0 0 32 32">
      <path d="M20.8 7.808h2.56c0.768 0 1.408-0.64 1.408-1.408v-4.48c0-0.768-0.64-1.408-1.408-1.408h-3.808c-4.704 0-7.84 3.232-7.84 8.032v2.528h-3.040c-0.768 0-1.408 0.64-1.408 1.408v4.832c0 0.768 0.64 1.408 1.408 1.408h3.040v11.392c0 0.768 0.64 1.408 1.408 1.408h4.992c0.768 0 1.408-0.64 1.408-1.408v-11.392h3.68c0.768 0 1.408-0.64 1.408-1.408v-4.832c0-0.384-0.16-0.736-0.416-0.992s-0.608-0.416-0.992-0.416h-3.68v-2.016c0-0.992 0.032-1.248 1.28-1.248zM22.976 12.704v4.416h-5.056v12.8h-4.608v-12.8h-4.448v-4.416h4.448v-4.16c0-3.968 2.4-6.432 6.24-6.432h3.616v4.096h-2.368c-2.56 0-2.88 1.44-2.88 2.848v3.616h5.056z"></path>
    </symbol>
    <symbol id="icon-instagram" viewBox="0 0 32 32">
      <path d="M16 8.128c2.56 0 2.864 0 3.88 0.056 0.643 0.010 1.255 0.132 1.821 0.348l-0.037-0.012c0.841 0.323 1.493 0.975 1.809 1.795l0.007 0.021c0.204 0.529 0.326 1.141 0.336 1.78l0 0.004c0.048 1.016 0.056 1.32 0.056 3.88s0 2.864-0.056 3.88c-0.010 0.643-0.132 1.255-0.348 1.821l0.012-0.037c-0.323 0.841-0.975 1.493-1.795 1.809l-0.021 0.007c-0.529 0.204-1.141 0.326-1.78 0.336l-0.004 0c-1.016 0.048-1.32 0.056-3.88 0.056s-2.864 0-3.88-0.056c-0.643-0.010-1.255-0.132-1.821-0.348l0.037 0.012c-0.841-0.323-1.493-0.975-1.809-1.795l-0.007-0.021c-0.204-0.529-0.326-1.141-0.336-1.78l-0-0.004c-0.048-1.016-0.056-1.32-0.056-3.88s0-2.864 0.056-3.88c0.010-0.643 0.132-1.255 0.348-1.821l-0.012 0.037c0.323-0.841 0.975-1.493 1.795-1.809l0.021-0.007c0.529-0.204 1.141-0.326 1.78-0.336l0.004-0c1.016-0.048 1.32-0.056 3.88-0.056zM16 6.4c-2.608 0-2.936 0-3.96 0.056-0.841 0.017-1.638 0.18-2.376 0.464l0.048-0.016c-1.297 0.504-2.304 1.511-2.797 2.775l-0.011 0.033c-0.268 0.69-0.431 1.487-0.448 2.321l-0 0.007c-0.056 1.024-0.056 1.352-0.056 3.96s0 2.936 0.056 3.96c0.017 0.841 0.18 1.638 0.464 2.376l-0.016-0.048c0.504 1.297 1.511 2.304 2.775 2.797l0.033 0.011c0.69 0.268 1.487 0.431 2.321 0.448l0.007 0c1.024 0.056 1.352 0.056 3.96 0.056s2.936 0 3.96-0.056c0.841-0.017 1.638-0.18 2.376-0.464l-0.048 0.016c1.297-0.504 2.304-1.511 2.797-2.775l0.011-0.033c0.263-0.677 0.426-1.46 0.448-2.279l0-0.009c0.056-1.064 0.056-1.392 0.056-4s0-2.936-0.056-3.96c-0.017-0.841-0.18-1.638-0.464-2.376l0.016 0.048c-0.504-1.297-1.511-2.304-2.775-2.797l-0.033-0.011c-0.677-0.263-1.46-0.426-2.279-0.448l-0.009-0c-1.064-0.056-1.392-0.056-4-0.056zM16 11.072c-2.722 0-4.928 2.206-4.928 4.928s2.206 4.928 4.928 4.928c2.722 0 4.928-2.206 4.928-4.928v0c0-2.722-2.206-4.928-4.928-4.928v0zM16 19.2c-1.767 0-3.2-1.433-3.2-3.2s1.433-3.2 3.2-3.2c1.767 0 3.2 1.433 3.2 3.2v0c0 1.767-1.433 3.2-3.2 3.2v0zM21.128 9.72c-0.636 0-1.152 0.516-1.152 1.152s0.516 1.152 1.152 1.152c0.636 0 1.152-0.516 1.152-1.152v0c0-0.636-0.516-1.152-1.152-1.152v0z"></path>
    </symbol>
    <symbol id="icon-mobile-screen" viewBox="0 0 21 32">
      <path d="M16.935 2.286h-13.299c-1.377 0-2.494 1.152-2.494 2.571v22.286c0 1.42 1.117 2.571 2.494 2.571h13.299c1.377 0 2.494-1.152 2.494-2.571v-22.286c0-1.42-1.117-2.571-2.494-2.571zM12.779 26.238c0 0.52-0.374 0.905-0.831 0.905h-3.371c-0.41 0-0.784-0.386-0.784-0.857s0.374-0.857 0.831-0.857h3.325c0.457 0 0.831 0.386 0.831 0.809zM16.104 22.857h-11.636v-17.143h11.636v17.143z"></path>
    </symbol>
    <symbol id="icon-enterpreneuer" viewBox="0 0 24 24">
      <g clip-path="url(#clip0_34_124)">
        <path d="M18 10H24L21 6L18 10ZM18 14H24L21 18L18 14Z" fill="#D6B1FF" />
        <path d="M1 0H7V24H1C0.734784 24 0.480429 23.8946 0.292892 23.7071C0.105356 23.5196 0 23.2652 0 23V1C0 0.734784 0.105356 0.480429 0.292892 0.292892C0.480429 0.105356 0.734784 0 1 0Z" fill="#02897A" />
        <path d="M9 0H15C15.2652 0 15.5196 0.105356 15.7071 0.292892C15.8946 0.480429 16 0.734784 16 1V23C16 23.2652 15.8946 23.5196 15.7071 23.7071C15.5196 23.8946 15.2652 24 15 24H9V0Z" fill="#02897A" />
      </g>
      <defs>
        <clipPath id="clip0_34_124">
          <rect width="24" height="24" fill="white" />
        </clipPath>
      </defs>
    </symbol>
    <symbol id="icon-menu" viewBox="0 0 29 32">
      <path d="M2.065 16c0-0.855 0.693-1.548 1.548-1.548h21.677c0.855 0 1.548 0.693 1.548 1.548s-0.693 1.548-1.548 1.548h-21.677c-0.855 0-1.548-0.693-1.548-1.548z"></path>
      <path d="M2.065 8c0-0.855 0.693-1.548 1.548-1.548h21.677c0.855 0 1.548 0.693 1.548 1.548s-0.693 1.548-1.548 1.548h-21.677c-0.855 0-1.548-0.693-1.548-1.548z"></path>
      <path d="M2.065 24c0-0.855 0.693-1.548 1.548-1.548h21.677c0.855 0 1.548 0.693 1.548 1.548s-0.693 1.548-1.548 1.548h-21.677c-0.855 0-1.548-0.693-1.548-1.548z"></path>
    </symbol>
    <symbol id="icon-close" viewBox="0 0 32 32">
      <path d="M31.439 3.166l-3.166-3.166-12.553 12.553-12.553-12.553-3.166 3.166 12.553 12.553-12.553 12.553 3.166 3.166 12.553-12.553 12.553 12.553 3.166-3.166-12.553-12.553 12.553-12.553z"></path>
    </symbol>
  </defs>
</svg>